<?xml version="1.0" encoding="UTF-8" standalone="no"?>
<svg
   xmlns:dc="http://purl.org/dc/elements/1.1/"
   xmlns:cc="http://creativecommons.org/ns#"
   xmlns:rdf="http://www.w3.org/1999/02/22-rdf-syntax-ns#"
   xmlns:svg="http://www.w3.org/2000/svg"
   xmlns="http://www.w3.org/2000/svg"
   viewBox="0 0 1122.52 793.70667"
   height="793.70667"
   width="1122.52"
   xml:space="preserve"
   id="svg2"
   version="1.1"><metadata
     id="metadata8"><rdf:RDF><cc:Work
         rdf:about=""><dc:format>image/svg+xml</dc:format><dc:type
           rdf:resource="http://purl.org/dc/dcmitype/StillImage" /></cc:Work></rdf:RDF></metadata><defs
     id="defs6"><clipPath
       id="clipPath18"
       clipPathUnits="userSpaceOnUse"><path
         id="path16"
         d="M 0,595.28 H 841.89 V 0 H 0 Z" /></clipPath></defs><g
     transform="matrix(1.3333333,0,0,-1.3333333,0,793.70667)"
     id="g10"><g
       id="g12"><g
         clip-path="url(#clipPath18)"
         id="g14"><g
           transform="translate(67,263)"
           id="g20"><path
             id="path22"
             style="fill:#ff0000;fill-opacity:1;fill-rule:evenodd;stroke:none"
             d="m 0,0 c 2.457,11.686 7.437,21.949 16.5,30.044 9.079,8.109 19.666,13.547 30.833,18.088 154.66,62.884 309.584,125.13 463.821,189.035 58.957,24.428 116.338,52.662 174.427,79.185 0.875,0.399 1.616,1.092 2.419,1.648 h 2 c -0.044,-1.59 0.362,-3.364 -0.2,-4.743 -7.907,-19.385 -15.116,-39.115 -24.184,-57.949 -9.301,-19.321 -25.031,-32.817 -45.233,-40.18 C 560.386,193.261 500.347,171.5 440.158,150.167 313.662,105.331 187.051,60.817 60.527,16.059 54.934,14.079 49.343,11.566 44.434,8.281 32.235,0.118 29.575,-12.886 37.52,-25.193 c 2.938,-4.55 6.829,-8.614 10.808,-12.341 39.754,-37.251 79.615,-74.388 119.463,-111.538 1.071,-0.999 2.325,-1.801 4.551,-3.503 -2.308,-0.295 -3.041,-0.47 -3.774,-0.471 -16.994,-0.016 -33.988,0.052 -50.982,-0.078 -2.938,-0.022 -4.424,0.839 -5.408,3.699 -3.033,8.825 -8.424,16.135 -15.011,22.698 -21.953,21.873 -43.579,44.08 -65.784,65.69 C 17.009,-47.048 3.668,-32.701 0,-12 Z" /></g><g
           transform="translate(284.5757,82.6084)"
           id="g24"><path
             id="path26"
             style="fill:#ff0000;fill-opacity:1;fill-rule:evenodd;stroke:none"
             d="m 0,0 c -2.536,-0.177 -5.543,-0.226 -8.504,-0.619 -10.71,-1.424 -17.5,-7.015 -19.246,-17.277 -2.035,-11.967 -2.992,-24.123 8.356,-32.785 1.918,-1.464 4.409,-2.699 6.759,-2.971 6.224,-0.723 12.565,-1.539 18.771,-1.092 13.644,0.983 20.553,7.771 22.055,21.22 0.509,4.564 0.314,9.347 -0.437,13.885 C 25.788,-7.755 18.918,-1.67 6.929,-0.495 4.778,-0.284 2.616,-0.184 0,0 m -2.576,-70.608 c -9.52,1.354 -19.155,2.19 -28.519,4.255 -5.726,1.263 -11.43,3.767 -16.464,6.83 -24.148,14.692 -23.968,49.146 0.109,63.938 9.129,5.609 19.24,8.279 29.734,9.311 C 0.775,15.544 19.21,15.575 37.04,9.247 59.313,1.343 70.033,-18.564 63.209,-39.635 58.156,-55.239 45.801,-62.762 30.936,-66.348 21.631,-68.592 11.941,-69.242 2.424,-70.608 Z" /></g><g
           transform="translate(675.7686,53.8896)"
           id="g28"><path
             id="path30"
             style="fill:#ff0000;fill-opacity:1;fill-rule:evenodd;stroke:none"
             d="M 0,0 H 31.198 C 25.693,8.409 20.637,16.136 15.109,24.579 9.883,16.077 5.133,8.35 0,0 M 100.231,-38.89 H 31.389 v 10.543 c 2.442,0.315 5.039,0.605 7.622,0.992 2.818,0.422 6.818,0.944 5.939,4.39 -0.817,3.2 -4.005,8.114 -6.347,8.23 -15.126,0.746 -30.326,0.752 -45.451,10e-4 -2.372,-0.119 -5.532,-5.029 -6.449,-8.256 -1.015,-3.572 2.951,-4.057 5.767,-4.47 2.275,-0.334 4.567,-0.546 7.084,-0.839 V -38.48 H -50.67 v 9.731 c 0.427,0.373 0.556,0.58 0.669,0.572 10.508,-0.768 16.027,5.219 20.683,13.823 6.25,11.55 13.626,22.49 20.475,33.718 4.024,6.595 2.625,9.131 -5.217,9.81 -3.294,0.285 -6.575,0.742 -10.094,1.147 V 40.89 h 13.133 c 14.663,0 29.331,-0.212 43.987,0.106 5.676,0.123 9.326,-1.88 12.349,-6.591 10.971,-17.096 22.727,-33.715 33.117,-51.151 5.335,-8.952 12.256,-11.883 21.799,-11.144 z" /></g><g
           transform="translate(260.0254,261.4717)"
           id="g32"><path
             id="path34"
             style="fill:#ff0000;fill-opacity:1;fill-rule:evenodd;stroke:none"
             d="m 0,0 c -23.531,-6.163 -46.686,-12.237 -69.846,-18.291 -18.666,-4.879 -37.353,-9.677 -55.992,-14.655 -3.056,-0.817 -5.362,-0.626 -7.611,1.804 -2.596,2.807 -5.673,5.166 -8.289,7.956 -7.662,8.173 -6.24,18.916 3.432,24.432 3.863,2.203 8.144,3.791 12.39,5.188 167.144,54.993 334.334,109.846 501.433,164.975 22.412,7.395 44.378,16.142 66.552,24.254 1.611,0.589 3.243,1.117 5.043,1.735 0.281,-1.179 0.612,-1.729 0.464,-2.071 -9.083,-21.015 -19.989,-41.018 -34.282,-58.962 C 402.808,123.2 389.033,114.833 372.752,110.463 281.192,85.888 189.65,61.25 98.098,36.646 66.777,28.229 35.444,19.862 4.125,11.442 -2.604,9.634 -3.837,6.553 0,0" /></g><g
           transform="translate(650.1777,351.0625)"
           id="g36"><path
             id="path38"
             style="fill:#ff0000;fill-opacity:1;fill-rule:evenodd;stroke:none"
             d="m 0,0 c -0.632,-1.291 -1.104,-2.694 -1.921,-3.856 -9.941,-14.158 -19.537,-28.582 -30.022,-42.327 -10.99,-14.407 -26.722,-20.528 -44.158,-23.848 -81.711,-15.558 -163.357,-31.46 -245.024,-47.244 -0.653,-0.127 -1.288,-0.345 -1.937,-0.491 -6.734,-1.507 -7.938,-4.88 -3.348,-11.207 -8.471,-1.666 -16.644,-3.314 -24.833,-4.878 -41.832,-7.986 -83.675,-15.916 -125.491,-23.983 -3.895,-0.751 -6.736,-0.294 -9.76,2.681 -8.292,8.158 -16.999,15.895 -26.351,24.547 C -341.646,-86.499 -171.288,-42.607 -0.93,1.283 -0.62,0.855 -0.31,0.428 0,0" /></g><g
           transform="translate(396.9121,176.4854)"
           id="g40"><path
             id="path42"
             style="fill:#ff0000;fill-opacity:1;fill-rule:evenodd;stroke:none"
             d="m 0,0 c -14.246,-1.807 -28.398,-3.602 -42.55,-5.395 -33.197,-4.205 -66.395,-8.406 -99.592,-12.614 -13.708,-1.737 -27.407,-3.547 -41.131,-5.146 -1.618,-0.189 -3.842,0.221 -4.98,1.247 -10.768,9.703 -21.365,19.596 -31.993,29.457 -0.319,0.296 -0.434,0.813 -0.826,1.587 C -84.546,34.74 51.739,60.3 189.266,86.092 187.927,83.84 187.446,82.629 186.631,81.721 175.95,69.827 165.607,57.596 154.404,46.213 141.315,32.914 124.35,27.996 106.259,25.53 72.781,20.967 39.375,15.883 5.952,10.922 -1.934,9.751 -3.048,7.596 0,0" /></g><g
           transform="translate(505.1006,109.9375)"
           id="g44"><path
             id="path46"
             style="fill:#ff0000;fill-opacity:1;fill-rule:evenodd;stroke:none"
             d="m 0,0 h -6.34 c -78.934,0 -157.869,0.023 -236.804,-0.07 -3.751,-0.005 -6.524,0.973 -9.27,3.591 -10.943,10.434 -22.109,20.635 -34.055,31.724 7.043,0.892 13.034,1.705 19.039,2.402 35.697,4.144 71.399,8.244 107.096,12.392 21.318,2.478 42.623,5.064 63.951,7.457 1.989,0.224 4.458,0.002 6.093,-1.005 C -60.962,38.43 -31.728,20.217 -2.479,2.025 -1.962,1.704 -1.525,1.254 0,0" /></g><g
           transform="translate(71.0439,84.2178)"
           id="g48"><path
             id="path50"
             style="fill:#ff0000;fill-opacity:1;fill-rule:evenodd;stroke:none"
             d="M 0,0 V 10.227 H 62.846 V 0.032 C 59.853,-0.359 56.931,-0.86 53.988,-1.099 49.797,-1.437 47.542,-3.633 47.408,-7.771 47.27,-12.065 47.377,-16.368 47.377,-21 h 49.541 c 0,4.622 0.166,9.077 -0.05,13.515 -0.19,3.862 -2.439,6 -6.38,6.356 -2.973,0.269 -5.931,0.706 -9.178,1.104 v 10.254 h 63.075 V 0.014 c -2.898,-0.377 -5.665,-0.911 -8.453,-1.062 -4.883,-0.262 -7.261,-2.596 -7.239,-7.562 0.063,-13.83 0.045,-27.661 0.013,-41.491 -0.011,-4.684 2.198,-7.048 6.901,-7.337 2.816,-0.173 5.609,-0.71 8.745,-1.128 V -68.722 H 81.351 v 10.159 c 2.973,0.395 6.046,0.928 9.143,1.183 4.281,0.354 6.281,2.79 6.424,6.828 0.148,4.154 0.033,8.316 0.033,12.937 H 47.719 c 0,-4.97 -0.443,-10.114 0.243,-15.104 0.237,-1.723 3.059,-3.717 5.101,-4.418 2.92,-1.002 6.209,-0.93 9.752,-1.369 V -68.694 H 0.051 v 10.114 c 3.193,0.428 6.125,0.952 9.079,1.184 3.987,0.314 6.333,2.421 6.373,6.296 0.148,14.49 0.155,28.983 0.031,43.472 -0.036,4.131 -2.539,6.258 -6.715,6.543 C 6.016,-0.894 3.233,-0.409 0,0" /></g><g
           transform="translate(403.8301,25.6504)"
           id="g52"><path
             id="path54"
             style="fill:#ff0000;fill-opacity:1;fill-rule:evenodd;stroke:none"
             d="M 0,0 V -10.276 H -50.083 V 0.006 c 3.213,0.415 6.323,0.869 9.445,1.206 3.972,0.429 6.034,2.612 6.045,6.567 0.037,14.331 0.032,28.663 0.005,42.995 -0.008,4.267 -2.368,6.307 -6.498,6.684 -2.972,0.271 -5.927,0.723 -9.142,1.125 v 10.546 h 6.106 c 15.666,-0.001 31.333,-0.108 46.997,0.062 4.78,0.052 8.123,-1.596 10.998,-5.452 12.15,-16.293 24.513,-32.428 36.803,-48.617 0.988,-1.302 2.018,-2.57 3.705,-4.713 0.278,2.11 0.558,3.265 0.562,4.421 0.034,10.833 0.051,21.666 0.01,32.498 -0.031,8.158 -1.169,9.359 -9.281,10.324 -1.98,0.237 -3.943,0.604 -6.305,0.972 V 68.747 H 89.416 V 58.6 C 86.752,58.233 84.154,57.811 81.541,57.529 75.244,56.851 73.782,55.455 73.748,48.981 73.658,31.316 73.71,13.649 73.706,-4.016 c -0.001,-1.968 0,-3.936 0,-6.351 -14.118,0 -27.725,-0.25 -41.306,0.236 -2.379,0.085 -5.167,2.86 -6.882,5.077 -12.138,15.676 -24.043,31.531 -36.025,47.326 -1.29,1.701 -2.597,3.389 -4.604,6.007 -0.284,-2.182 -0.559,-3.329 -0.562,-4.476 C -15.707,33.304 -15.7,22.804 -15.691,12.305 -15.684,2.826 -15.106,2.153 -5.973,0.847 -4.16,0.587 -2.346,0.333 0,0" /></g><g
           transform="translate(546.1943,30.7744)"
           id="g56"><path
             id="path58"
             style="fill:#ff0000;fill-opacity:1;fill-rule:evenodd;stroke:none"
             d="m 0,0 c 11.438,0 22.249,-0.399 33.014,0.138 7.469,0.373 12.703,5.182 13.609,12.469 0.95,7.644 0.815,15.564 -0.007,23.24 -0.663,6.198 -4.947,11.21 -11.271,11.86 C 23.689,48.905 11.915,48.948 0,49.48 Z m -47.035,-15.361 v 10.196 c 3.032,0.419 5.94,1.009 8.874,1.182 4.498,0.264 6.807,2.683 6.844,6.957 0.119,14.314 0.1,28.631 0.014,42.947 -0.022,3.859 -2.019,6.164 -6.103,6.472 -2.786,0.209 -5.553,0.684 -8.532,1.068 v 10.275 c 1.722,0.1 3.179,0.256 4.636,0.257 24.805,0.015 49.621,0.451 74.407,-0.217 C 42.424,63.525 52.052,61.815 60.87,58.811 76.406,53.517 84.551,40.575 84.586,24.25 84.621,7.899 76.527,-4.873 61.019,-10.439 c -7.856,-2.821 -16.451,-4.737 -24.761,-4.928 -26.954,-0.62 -53.932,-0.257 -80.901,-0.261 -0.639,0 -1.279,0.139 -2.392,0.267" /></g></g></g></g></svg>