<?xml version="1.0" encoding="UTF-8" standalone="no"?>
<svg
   xmlns:dc="http://purl.org/dc/elements/1.1/"
   xmlns:cc="http://creativecommons.org/ns#"
   xmlns:rdf="http://www.w3.org/1999/02/22-rdf-syntax-ns#"
   xmlns:svg="http://www.w3.org/2000/svg"
   xmlns="http://www.w3.org/2000/svg"
   viewBox="0 0 257.01334 257.01334"
   height="257.01334"
   width="257.01334"
   xml:space="preserve"
   id="svg2"
   version="1.1"><metadata
     id="metadata8"><rdf:RDF><cc:Work
         rdf:about=""><dc:format>image/svg+xml</dc:format><dc:type
           rdf:resource="http://purl.org/dc/dcmitype/StillImage" /></cc:Work></rdf:RDF></metadata><defs
     id="defs6" /><g
     transform="matrix(1.3333333,0,0,-1.3333333,0,257.01333)"
     id="g10"><g
       transform="scale(0.1)"
       id="g12"><path
         id="path14"
         style="fill:#ffffff;fill-opacity:1;fill-rule:evenodd;stroke:none"
         d="M 0,1927.56 H 1927.56 V 0 H 0 v 1927.56" /><path
         id="path16"
         style="fill:#ed1c24;fill-opacity:1;fill-rule:evenodd;stroke:none"
         d="m 240.371,823.461 c -25.144,15.754 -43.672,70.102 -43.672,134.687 0,2.368 0.016,4.711 0.067,7.043 v 0 l 0.031,-0.035 v 0 C 126.852,976.148 76.3203,1006.27 75.0234,1041.88 v 0 l -0.207,-0.42 v 0 C 57.7031,1020.2 47.9375,995.605 47.9375,969.406 c 0,-77.097 84.6285,-140.273 191.9805,-145.859 v 0 l 0.453,-0.086 z M 15.5977,963.781 c 0,86.269 107.3633,156.219 239.8003,156.219 132.438,0 239.801,-69.95 239.801,-156.219 0,-86.269 -107.363,-156.222 -239.801,-156.222 -132.437,0 -239.8003,69.953 -239.8003,156.222 v 0 z M 255.398,1097.45 c 25.571,0 47.321,-38.78 55.372,-92.9 v 0 l 0.031,0.09 v 0 c 49.742,7.74 84.566,25.6 84.566,46.38 0,27.89 -62.672,50.49 -139.969,50.49 -77.296,0 -139.964,-22.6 -139.964,-50.49 0,-20.78 34.82,-38.64 84.566,-46.38 v 0 l 0.031,-0.09 v 0 c 8.059,54.12 29.809,92.9 55.367,92.9 v 0 z m 15.481,-273.903 c 107.351,5.586 191.992,68.762 191.992,145.859 0,26.199 -9.777,50.794 -26.891,72.054 v 0 l -0.207,0.42 v 0 c -1.296,-35.61 -51.82,-65.732 -121.769,-76.724 v 0 l 0.031,0.035 v 0 c 0.047,-2.332 0.07,-4.675 0.07,-7.043 0,-64.585 -18.535,-118.933 -43.667,-134.687 v 0 l 0.441,0.086 z m -15.481,176.993 c 11.457,0 22.59,0.48 33.247,1.42 v 0 l -0.016,-0.01 v 0 c -5.305,34.68 -18.18,59.16 -33.231,59.16 -15.046,0 -27.921,-24.48 -33.23,-59.16 v 0 l -0.016,0.01 v 0 c 10.657,-0.94 21.793,-1.42 33.246,-1.42 v 0 z m 0,-128.47 c 19.25,0 34.954,40.055 35.79,90.301 v 0 l 0.105,-0.035 v 0 c -11.605,-1.078 -23.605,-1.637 -35.895,-1.637 -12.289,0 -24.285,0.559 -35.886,1.637 v 0 l 0.105,0.035 v 0 c 0.832,-50.246 16.531,-90.301 35.781,-90.301 v 0 0" /><path
         id="path18"
         style="fill:#ed1c24;fill-opacity:1;fill-rule:evenodd;stroke:none"
         d="m 1239.22,963.781 c 0,65.929 53.46,119.399 119.4,119.399 65.95,0 119.41,-53.47 119.41,-119.399 0,-65.945 -53.46,-119.394 -119.41,-119.394 -65.94,0 -119.4,53.449 -119.4,119.394 v 0 z m 119.4,-75.613 c 36.82,0 66.67,33.855 66.67,75.613 0,41.759 -29.85,75.609 -66.67,75.609 -36.82,0 -66.66,-33.85 -66.66,-75.609 0,-41.758 29.84,-75.613 66.66,-75.613 v 0 0" /><path
         id="path20"
         style="fill:#ed1c24;fill-opacity:1;fill-rule:evenodd;stroke:none"
         d="M 1613.5,1033.43 V 849.805 h -50.3 v 183.625 h 0.16 -70.35 v 41.51 h 190.67 v -41.51 h -70.01 -0.17 v 0" /><path
         id="path22"
         style="fill:#ed1c24;fill-opacity:1;fill-rule:evenodd;stroke:none"
         d="m 1744.54,900.461 -0.05,-0.051 -19.3,-50.605 h -58.76 l 92.89,225.135 h 31.31 31.3 l 92.88,-225.135 h -58.75 l -19.3,50.605 -0.05,0.051 h -46.08 -46.09 z m 46.09,38 h 31.66 l -0.03,-0.012 -31.41,82.401 h -0.44 l -31.43,-82.401 -0.02,0.012 h 31.67 v 0" /><path
         id="path24"
         style="fill:#ed1c24;fill-opacity:1;fill-rule:evenodd;stroke:none"
         d="M 686.172,1033.43 V 849.805 h -50.309 v 183.625 h 0.176 -70.359 v 41.51 h 190.675 v -41.51 h -70.003 -0.18 v 0" /><path
         id="path26"
         style="fill:#ed1c24;fill-opacity:1;fill-rule:evenodd;stroke:none"
         d="m 769.223,963.781 c 0,65.929 53.461,119.399 119.406,119.399 65.941,0 119.401,-53.47 119.401,-119.399 0,-65.945 -53.46,-119.394 -119.401,-119.394 -65.945,0 -119.406,53.449 -119.406,119.394 v 0 z m 119.406,-75.613 c 36.812,0 66.668,33.855 66.668,75.613 0,41.759 -29.856,75.609 -66.668,75.609 -36.816,0 -66.668,-33.85 -66.668,-75.609 0,-41.758 29.852,-75.613 66.668,-75.613 v 0 0" /><path
         id="path28"
         style="fill:#ed1c24;fill-opacity:1;fill-rule:evenodd;stroke:none"
         d="m 1123.62,849.805 h 25.51 v 85.488 l 87.77,139.647 h -58.75 l -54.53,-94.627 -54.52,94.627 h -58.75 l 87.77,-139.647 v -1.059 -84.429 h 25.5 v 0" /></g></g></svg>