<?xml version="1.0" encoding="UTF-8" standalone="no"?>
<svg
   xmlns:dc="http://purl.org/dc/elements/1.1/"
   xmlns:cc="http://creativecommons.org/ns#"
   xmlns:rdf="http://www.w3.org/1999/02/22-rdf-syntax-ns#"
   xmlns:svg="http://www.w3.org/2000/svg"
   xmlns="http://www.w3.org/2000/svg"
   viewBox="0 0 257.33334 257.33334"
   height="257.33334"
   width="257.33334"
   xml:space="preserve"
   id="svg2"
   version="1.1"><metadata
     id="metadata8"><rdf:RDF><cc:Work
         rdf:about=""><dc:format>image/svg+xml</dc:format><dc:type
           rdf:resource="http://purl.org/dc/dcmitype/StillImage" /></cc:Work></rdf:RDF></metadata><defs
     id="defs6" /><g
     transform="matrix(1.3333333,0,0,-1.3333333,0,257.33333)"
     id="g10"><g
       transform="scale(0.1)"
       id="g12"><path
         id="path14"
         style="fill:#ffffff;fill-opacity:1;fill-rule:evenodd;stroke:none"
         d="M 0,1927.56 H 1927.56 V 0 H 0 v 1927.56" /><path
         id="path16"
         style="fill:#231f20;fill-opacity:1;fill-rule:evenodd;stroke:none"
         d="m 219.293,966.082 c 31.59,-13.16 52.648,-31.586 71.734,-73.051 19.086,41.465 39.489,62.524 71.735,75.684 27.023,9.683 54.054,19.363 81.086,29.043 0.172,-0.688 0.343,-1.375 0.519,-2.059 1.317,-9.215 1.973,-20.406 1.973,-31.59 0,-114.511 -75.68,-137.543 -155.313,-136.886 -79.632,-0.657 -154.656,22.375 -154.656,136.886 0,8.555 0,17.114 1.317,24.348 0.39,1.617 0.781,3.231 1.171,4.848 26.813,-9.075 53.625,-18.149 80.434,-27.223 z m 207.109,79.398 c -0.593,0.95 -1.187,1.91 -1.777,2.86 -28.301,42.12 -79.633,52 -133.598,52 -53.964,0 -106.613,-10.54 -134.254,-53.31 -0.988,-1.72 -1.98,-3.43 -2.972,-5.15 47.492,-27.14 101.363,-27.63 137.226,-96.2 32.942,70.67 87.411,71.66 135.375,99.8 z m 38.364,24.58 c -1.536,1.76 -3.075,3.51 -4.606,5.27 -42.121,45.41 -111.222,55.28 -169.133,55.28 -58.57,0 -129.648,-9.87 -171.109,-57.91 -0.66,-0.88 -1.316,-1.76 -1.973,-2.64 -20.3981,-24.35 -32.9059,-59.22 -32.9059,-105.951 0,-144.125 117.1409,-167.16 205.9879,-167.16 89.504,0 206.645,23.035 206.645,167.16 0,46.731 -12.504,81.601 -32.906,105.951" /><path
         id="path18"
         style="fill:#231f20;fill-opacity:1;fill-rule:evenodd;stroke:none"
         d="m 1842.52,1011.9 c 0,-62.337 0,-154.978 0,-154.978 h -167.1 c 0,0 -54.54,0.863 -62.34,55.41 -12.99,-39.828 -40.69,-54.547 -70.13,-54.547 -41.56,0 -154.11,0 -154.11,0 V 1015.36 L 1192.3,856.922 H 993.168 c 0,0 -34.629,0 -51.945,28.57 0,-19.047 0,-28.57 0,-28.57 h -71.864 v 122.945 c 0,0 4.329,27.703 -29.437,27.703 H 816.547 V 856.922 h -69.262 v 150.648 c -27.711,0 -51.086,0 -51.086,0 V 856.922 h -72.726 v 214.718 h 240.695 c 0,0 77.055,5.19 77.055,-80.519 v -24.242 c 17.316,26.836 51.945,25.105 63.207,25.105 14.71,0 90.91,0 90.91,0 0,0 4.32,21.646 -28.58,21.646 -32.03,0 -113.416,0 -113.416,0 v 58.01 H 1096.2 c 0,0 64.07,2.6 64.07,-59.74 0,-62.337 0,-95.24 0,-95.24 l 195.67,154.98 h 192.21 c 0,0 73.59,2.6 73.59,-95.238 0,-3.468 0,-6.929 0,-10.39 17.32,27.703 52.81,25.972 64.07,25.972 15.58,0 90.91,0 90.91,0 0,0 5.19,21.646 -27.71,21.646 -32.9,0 -113.42,0 -113.42,0 v 58.01 h 142.86 c 0,0 64.07,2.6 64.07,-59.74 z m -627.7,-154.978 77.05,63.203 h 84.85 v -63.203 z m 118.61,214.718 -77.05,-64.07 h -84.86 v 64.07 z m 367.1,-127.277 h 74.46 v -28.57 h -76.19 c 0,0 -15.59,-0.863 -15.59,14.723 0,12.984 12.99,13.847 17.32,13.847 z m -681.39,0 h 75.33 v -28.57 h -76.19 c 0,0 -15.58,-0.863 -15.58,14.723 0,12.984 12.12,13.847 16.44,13.847 z m 503.9,-24.238 h -64.94 v 90.905 h 65.81 c 0,0 31.16,-2.59 31.16,-42.425 0,-39.824 -14.71,-48.48 -32.03,-48.48" /></g></g></svg>