<?xml version="1.0" encoding="UTF-8" standalone="no"?>
<svg
   xmlns:dc="http://purl.org/dc/elements/1.1/"
   xmlns:cc="http://creativecommons.org/ns#"
   xmlns:rdf="http://www.w3.org/1999/02/22-rdf-syntax-ns#"
   xmlns:svg="http://www.w3.org/2000/svg"
   xmlns="http://www.w3.org/2000/svg"
   viewBox="0 0 258.66666 258.66666"
   height="258.66666"
   width="258.66666"
   xml:space="preserve"
   id="svg2"
   version="1.1"><metadata
     id="metadata8"><rdf:RDF><cc:Work
         rdf:about=""><dc:format>image/svg+xml</dc:format><dc:type
           rdf:resource="http://purl.org/dc/dcmitype/StillImage" /></cc:Work></rdf:RDF></metadata><defs
     id="defs6" /><g
     transform="matrix(1.3333333,0,0,-1.3333333,0,258.66667)"
     id="g10"><g
       transform="scale(0.1)"
       id="g12"><path
         id="path14"
         style="fill:#ffffff;fill-opacity:1;fill-rule:evenodd;stroke:none"
         d="M 2.59766,1933.23 H 1930.16 V 5.66797 H 2.59766 V 1933.23" /><path
         id="path16"
         style="fill:#231f20;fill-opacity:1;fill-rule:evenodd;stroke:none"
         d="m 1160.93,938.48 h -89.71 l 44.47,81.91 z m 44.09,-81.55 64.75,0.027 -120.2,219.613 h -67.82 L 962.57,856.93 h 64.16 l 21.79,39.949 h 135.04 l 21.46,-39.949" /><path
         id="path18"
         style="fill:#231f20;fill-opacity:1;fill-rule:evenodd;stroke:none"
         d="m 759.945,987.629 h 112.582 c 14.528,0 25.047,3.953 25.047,22.111 0,16.51 -10.187,23.14 -23.726,23.14 H 759.945 Z m 0,-87.766 h 119.36 c 16.183,0 24.922,7.848 24.922,27.66 0,17.504 -10.059,18.817 -23.93,18.817 H 759.945 Z m -58.511,-43.66 v 220.237 h 184.894 c 40.281,0 68.016,-11.89 68.016,-56.79 0,-13.88 -2.719,-33.798 -14.27,-43.377 -3.789,-3.421 -8.359,-5.664 -13.179,-7.367 24.566,-5.441 35.886,-28.086 36.035,-49.308 0.367,-51.18 -26.41,-63.395 -73.305,-63.395 H 701.434" /><path
         id="path20"
         style="fill:#231f20;fill-opacity:1;fill-rule:evenodd;stroke:none"
         d="m 1346.61,1032.88 h 105.43 c 6.26,0 13.2,-3.03 19.15,-4.68 12.54,-3.64 17.85,-19.14 18.18,-30.696 0,-24.434 -7.63,-37.18 -39,-37.18 h -103.76 z m 0,-113.513 h 112.78 c 28.06,0 31.54,-17.293 31.54,-41.394 v -21.129 h 58.51 v 25.469 c 0,25.792 -12.69,51.808 -33.54,60.07 12.09,8.578 20.28,19.5 24.19,27.691 3.3,6.938 8.67,18.332 8.18,37.336 -1.34,53.15 -19.54,69.16 -71.38,69.16 H 1285.76 V 856.957 l 60.85,-0.113 v 62.523" /><path
         id="path22"
         style="fill:#231f20;fill-opacity:1;fill-rule:evenodd;stroke:none"
         d="m 281.391,941.988 c 14.527,0 31.039,0.203 31.039,-17.633 0,-18.82 -6.918,-24.882 -29.719,-24.492 H 190 c -21.789,0.211 -34.344,-1.023 -34.344,19.114 L 89.2891,919 v -8.059 c 0,-50.195 23.9219,-54.769 69.3399,-54.769 H 304.73 c 50.325,0 69.829,13.726 69.829,67.875 0,57.125 -23.411,60.848 -74.118,62.41 l -125.601,4.629 c -16.383,0 -23.016,3.961 -23.016,25.424 0,13.21 9.176,21.95 21.067,22.61 h 106.515 c 14.86,-0.66 24.766,-6.89 25.758,-23.41 h 65.711 c -0.332,13.88 0,26.89 -7.266,39.77 -15.851,26.08 -46.226,26.41 -73.308,26.74 l -62.985,0.66 c -25.429,0 -75.285,-0.33 -98.738,-6.6 -34.9999,-8.91 -40.9413,-31.37 -40.9413,-64.07 0,-41.265 12.6993,-63.413 56.4683,-65.487 l 137.286,-4.735" /><path
         id="path24"
         style="fill:#231f20;fill-opacity:1;fill-rule:evenodd;stroke:none"
         d="m 619.91,856.02 c 34.715,0 51.879,15.757 51.879,52.035 v 168.515 h -58.898 l 0.054,-146.672 c -0.992,-32.691 -1.035,-30.035 -38.672,-30.035 H 500.16 c -36.285,0.075 -38.23,-1.168 -39.789,30.035 v 146.672 h -58.707 l 0.195,-169.293 c 0,-36.668 14.043,-51.117 51.493,-51.117 l 166.558,-0.14" /><path
         id="path26"
         style="fill:#231f20;fill-opacity:1;fill-rule:evenodd;stroke:none"
         d="m 1793.24,856.02 c 34.71,0 51.88,15.757 51.88,52.035 v 168.515 h -58.9 l 0.05,-146.672 c -0.98,-32.691 -1.03,-30.035 -38.67,-30.035 h -74.12 c -36.28,0.075 -38.22,-1.168 -39.78,30.035 v 146.672 h -58.71 l 0.2,-169.293 c 0,-36.668 14.04,-51.117 51.49,-51.117 l 166.56,-0.14" /></g></g></svg>